<svg width="24" height="20" viewBox="0 0 24 20" fill="none" xmlns="http://www.w3.org/2000/svg">
<path d="M11.2012 0.265555C11.4214 0.0944833 11.7056 0 12 0C12.2944 0 12.5786 0.0944833 12.7988 0.265555L23.6256 8.68693C23.8519 8.87506 23.9858 9.13281 23.9989 9.40572C24.0121 9.67863 23.9035 9.94534 23.6961 10.1495C23.4888 10.3537 23.1988 10.4793 22.8875 10.4998C22.5763 10.5204 22.268 10.4342 22.028 10.2596L21.6238 9.94698V17.8947C21.6238 18.453 21.3703 18.9885 20.9191 19.3834C20.4679 19.7782 19.8559 20 19.2179 20H4.78215C4.14405 20 3.53209 19.7782 3.08089 19.3834C2.62968 18.9885 2.3762 18.453 2.3762 17.8947V9.94698L1.972 10.2596C1.73196 10.4342 1.42374 10.5204 1.11247 10.4998C0.801201 10.4793 0.511247 10.3537 0.303861 10.1495C0.0964762 9.94534 -0.012099 9.67863 0.00107239 9.40572C0.0142438 9.13281 0.14813 8.87506 0.374448 8.68693L11.2012 0.265555ZM4.78215 8.07322V17.8947H8.39107V12.6313C8.39107 12.3521 8.51782 12.0844 8.74342 11.8869C8.96902 11.6895 9.275 11.5786 9.59405 11.5786H14.406C14.725 11.5786 15.031 11.6895 15.2566 11.8869C15.4822 12.0844 15.6089 12.3521 15.6089 12.6313V17.8947H19.2179V8.07428L12 2.46038L4.78215 8.07428V8.07322ZM13.203 17.8947V13.684H10.797V17.8947H13.203Z" fill="#0D0D0D"/>
</svg>
