<svg width="22" height="22" viewBox="0 0 22 22" fill="none" xmlns="http://www.w3.org/2000/svg">
<path d="M7.22727 0C7.54673 0 7.85312 0.121978 8.07901 0.3391C8.30491 0.556223 8.43181 0.850704 8.43181 1.15776V2.31552H13.25V1.15776C13.25 0.850704 13.3769 0.556223 13.6028 0.3391C13.8287 0.121978 14.1351 0 14.4545 0C14.774 0 15.0804 0.121978 15.3063 0.3391C15.5322 0.556223 15.6591 0.850704 15.6591 1.15776V2.31552H19.2727C19.9116 2.31552 20.5244 2.55948 20.9762 2.99372C21.428 3.42797 21.6818 4.01693 21.6818 4.63104V19.6819C21.6818 20.2961 21.428 20.885 20.9762 21.3193C20.5244 21.7535 19.9116 21.9975 19.2727 21.9975H2.40909C1.77016 21.9975 1.1574 21.7535 0.705606 21.3193C0.253814 20.885 0 20.2961 0 19.6819V4.63104C0 4.01693 0.253814 3.42797 0.705606 2.99372C1.1574 2.55948 1.77016 2.31552 2.40909 2.31552H6.02272V1.15776C6.02272 0.850704 6.14963 0.556223 6.37553 0.3391C6.60142 0.121978 6.9078 0 7.22727 0ZM6.02272 4.63104H2.40909V8.10433H19.2727V4.63104H15.6591V5.78881C15.6591 6.09586 15.5322 6.39034 15.3063 6.60747C15.0804 6.82459 14.774 6.94657 14.4545 6.94657C14.1351 6.94657 13.8287 6.82459 13.6028 6.60747C13.3769 6.39034 13.25 6.09586 13.25 5.78881V4.63104H8.43181V5.78881C8.43181 6.09586 8.30491 6.39034 8.07901 6.60747C7.85312 6.82459 7.54673 6.94657 7.22727 6.94657C6.9078 6.94657 6.60142 6.82459 6.37553 6.60747C6.14963 6.39034 6.02272 6.09586 6.02272 5.78881V4.63104ZM19.2727 10.4199H2.40909V19.6819H19.2727V10.4199Z" fill="#0D0D0D"/>
</svg>
