<svg width="26" height="21" viewBox="0 0 26 21" fill="none" xmlns="http://www.w3.org/2000/svg">
<path d="M1.85004 2.36529L8.4392 0.394334V0.395424L8.76079 0.299306C8.98075 0.233565 9.21925 0.233565 9.43921 0.299306L16.8283 2.50994L16.9 2.53138L16.9717 2.50994L22.6488 0.81141L22.6488 0.811396C23.0052 0.704697 23.3854 0.675382 23.7576 0.726257C24.1299 0.777132 24.4816 0.906476 24.7841 1.10204L24.9198 0.892099L24.7841 1.10204C25.0865 1.29756 25.3301 1.55302 25.4971 1.84555L25.7142 1.72164L25.4971 1.84555C25.6639 2.13788 25.75 2.45975 25.75 2.78491V16.6589V16.659C25.7502 17.0894 25.5997 17.512 25.3148 17.8669C25.0295 18.2223 24.6234 18.4922 24.1512 18.6336L17.2392 20.7007C17.0193 20.7664 16.7808 20.7664 16.5608 20.7007L9.17169 18.4889L9.10002 18.4675L9.02836 18.4889L3.35001 20.1874C3.34999 20.1874 3.34997 20.1874 3.34996 20.1874C2.99367 20.2939 2.61359 20.323 2.24153 20.2721C1.86947 20.2211 1.51788 20.0917 1.21554 19.8962C0.913282 19.7007 0.669795 19.4453 0.502919 19.1529C0.336172 18.8607 0.250107 18.539 0.25 18.2139C0.25 18.2139 0.25 18.2139 0.25 18.2139L0.25 4.33992L0.25 4.33986C0.249885 3.90938 0.40059 3.48665 0.685683 3.1317C0.971167 2.77627 1.37752 2.50652 1.84999 2.3653L1.85004 2.36529ZM10.15 16.6589V16.845L10.3283 16.8984L15.5283 18.4546L15.85 18.5509V18.2151V4.33992V4.15379L15.6717 4.10042L10.4717 2.54421L10.15 2.44795V2.78372V16.6589ZM8.05 2.78489V2.44911L7.72832 2.54538L2.52832 4.10159L2.35 4.15495V4.34109V18.2139V18.5497L2.67168 18.4535L7.87168 16.8972L8.05 16.8439V16.6577V2.78489ZM18.1283 4.10159L17.95 4.15495V4.34109V18.2139V18.5497L18.2717 18.4535L23.4717 16.8972L23.65 16.8439V16.6577V2.78489V2.44911L23.3283 2.54538L18.1283 4.10159Z" fill="black" stroke="black" stroke-width="0.5"/>
</svg>
