<svg width="23" height="25" viewBox="0 0 23 25" fill="none" xmlns="http://www.w3.org/2000/svg">
<path d="M11.3409 2.43131C10.0041 2.43131 8.72206 2.94362 7.7768 3.85554C6.83154 4.76746 6.3005 6.00429 6.3005 7.29394C6.3005 8.58358 6.83154 9.82041 7.7768 10.7323C8.72206 11.6442 10.0041 12.1566 11.3409 12.1566C12.6777 12.1566 13.9597 11.6442 14.905 10.7323C15.8503 9.82041 16.3813 8.58358 16.3813 7.29394C16.3813 6.00429 15.8503 4.76746 14.905 3.85554C13.9597 2.94362 12.6777 2.43131 11.3409 2.43131ZM3.7803 7.29394C3.7803 5.35946 4.57686 3.50422 5.99475 2.13634C7.41264 0.768466 9.33571 0 11.3409 0C13.3461 0 15.2692 0.768466 16.6871 2.13634C18.1049 3.50422 18.9015 5.35946 18.9015 7.29394C18.9015 9.22841 18.1049 11.0836 16.6871 12.4515C15.2692 13.8194 13.3461 14.5879 11.3409 14.5879C9.33571 14.5879 7.41264 13.8194 5.99475 12.4515C4.57686 11.0836 3.7803 9.22841 3.7803 7.29394ZM6.3005 19.4505C5.2979 19.4505 4.33637 19.8347 3.62743 20.5187C2.91848 21.2026 2.5202 22.1302 2.5202 23.0975C2.5202 23.4199 2.38744 23.7291 2.15113 23.9571C1.91481 24.185 1.5943 24.3131 1.2601 24.3131C0.925901 24.3131 0.605389 24.185 0.369075 23.9571C0.13276 23.7291 0 23.4199 0 23.0975C0 21.4854 0.663801 19.9394 1.84537 18.7995C3.02695 17.6596 4.62951 17.0192 6.3005 17.0192H16.3813C18.0523 17.0192 19.6549 17.6596 20.8364 18.7995C22.018 19.9394 22.6818 21.4854 22.6818 23.0975C22.6818 23.4199 22.549 23.7291 22.3127 23.9571C22.0764 24.185 21.7559 24.3131 21.4217 24.3131C21.0875 24.3131 20.767 24.185 20.5307 23.9571C20.2944 23.7291 20.1616 23.4199 20.1616 23.0975C20.1616 22.1302 19.7633 21.2026 19.0544 20.5187C18.3454 19.8347 17.3839 19.4505 16.3813 19.4505H6.3005Z" fill="#0D0D0D"/>
</svg>
