<svg width="14" height="14" viewBox="0 0 14 14" fill="none" xmlns="http://www.w3.org/2000/svg">
<path d="M0 1.53985C0 1.13146 0.1475 0.739789 0.41005 0.451011C0.672601 0.162234 1.0287 0 1.4 0H12.6C12.9713 0 13.3274 0.162234 13.5899 0.451011C13.8525 0.739789 14 1.13146 14 1.53985V10.009C14 10.4174 13.8525 10.8091 13.5899 11.0979C13.3274 11.3866 12.9713 11.5489 12.6 11.5489H9.3898L7.4949 13.6331C7.36363 13.7774 7.18561 13.8585 7 13.8585C6.81438 13.8585 6.63637 13.7774 6.5051 13.6331L4.6102 11.5489H1.4C1.0287 11.5489 0.672601 11.3866 0.41005 11.0979C0.1475 10.8091 0 10.4174 0 10.009V1.53985ZM12.6 1.53985H1.4V10.009H4.9C5.08564 10.0091 5.26365 10.0902 5.3949 10.2346L7 12L8.6051 10.2346C8.73635 10.0902 8.91436 10.0091 9.1 10.009H12.6V1.53985ZM2.8 4.23459C2.8 4.03039 2.87375 3.83456 3.00503 3.69017C3.1363 3.54578 3.31435 3.46466 3.5 3.46466H10.5C10.6857 3.46466 10.8637 3.54578 10.995 3.69017C11.1263 3.83456 11.2 4.03039 11.2 4.23459C11.2 4.43878 11.1263 4.63462 10.995 4.779C10.8637 4.92339 10.6857 5.00451 10.5 5.00451H3.5C3.31435 5.00451 3.1363 4.92339 3.00503 4.779C2.87375 4.63462 2.8 4.43878 2.8 4.23459ZM2.8 7.31428C2.8 7.11009 2.87375 6.91425 3.00503 6.76987C3.1363 6.62548 3.31435 6.54436 3.5 6.54436H7.7C7.88565 6.54436 8.0637 6.62548 8.19497 6.76987C8.32625 6.91425 8.4 7.11009 8.4 7.31428C8.4 7.51848 8.32625 7.71431 8.19497 7.8587C8.0637 8.00309 7.88565 8.08421 7.7 8.08421H3.5C3.31435 8.08421 3.1363 8.00309 3.00503 7.8587C2.87375 7.71431 2.8 7.51848 2.8 7.31428Z" fill="white"/>
</svg>
