<svg width="24" height="25" viewBox="0 0 24 25" fill="none" xmlns="http://www.w3.org/2000/svg">
<path d="M11.2783 16.1781L5.62832 10.5181C5.53459 10.4251 5.4602 10.3145 5.40943 10.1926C5.35866 10.0708 5.33252 9.94008 5.33252 9.80807C5.33252 9.67606 5.35866 9.54535 5.40943 9.42349C5.4602 9.30163 5.53459 9.19103 5.62832 9.09807C5.81568 8.91182 6.06913 8.80727 6.33332 8.80727C6.5975 8.80727 6.85096 8.91182 7.03832 9.09807L12.0383 14.0481L16.9883 9.09807C17.1757 8.91182 17.4291 8.80727 17.6933 8.80727C17.9575 8.80727 18.211 8.91182 18.3983 9.09807C18.4928 9.19068 18.568 9.30113 18.6195 9.423C18.671 9.54488 18.6978 9.67576 18.6983 9.80807C18.6978 9.94037 18.671 10.0713 18.6195 10.1931C18.568 10.315 18.4928 10.4255 18.3983 10.5181L12.7483 16.1781C12.6547 16.2796 12.541 16.3606 12.4145 16.416C12.288 16.4714 12.1514 16.5 12.0133 16.5C11.8752 16.5 11.7386 16.4714 11.6121 16.416C11.4856 16.3606 11.372 16.2796 11.2783 16.1781Z" fill="white"/>
</svg>
