<svg width="27" height="24" viewBox="0 0 27 24" fill="none" xmlns="http://www.w3.org/2000/svg">
<path d="M9.52628 8.39454L9.52375 8.39637L9.52134 8.39845L9.52628 8.39454ZM20.7247 8.20801C20.6464 8.14096 20.5595 8.08229 20.4659 8.0332C20.3334 7.96387 20.1862 7.91943 20.0336 7.90264C19.881 7.88586 19.7261 7.89708 19.5785 7.93562C19.431 7.97415 19.2939 8.03918 19.1757 8.12668C19.0576 8.21418 18.9609 8.3223 18.8916 8.44434C18.504 9.12303 17.9696 9.72703 17.3188 10.2217C17.4183 9.72329 17.4685 9.2181 17.4688 8.71191C17.4709 7.17201 17.0139 5.65912 16.1443 4.32728C15.2747 2.99543 14.0236 1.8922 12.5183 1.12991C12.3525 1.04636 12.1655 1.00162 11.9749 0.999899C11.7844 0.998175 11.5964 1.03952 11.4287 1.12006C11.261 1.20059 11.1191 1.31768 11.0162 1.46032C10.9134 1.60297 10.853 1.76651 10.8407 1.93558C10.7778 2.88376 10.4989 3.8107 10.021 4.66025C9.54317 5.5098 8.87624 6.26427 8.06066 6.87794L7.80138 7.06544C6.94853 7.57553 6.19364 8.20434 5.56567 8.92774C4.58952 10.0208 3.91332 11.3011 3.59068 12.6669C3.26805 14.0328 3.30785 15.4466 3.70694 16.7964C4.10603 18.1462 4.85342 19.3948 5.88986 20.4431C6.92629 21.4914 8.22325 22.3107 9.67789 22.836C9.84869 22.898 10.034 22.9217 10.2176 22.905C10.4011 22.8883 10.5772 22.8318 10.7304 22.7403C10.8835 22.6488 11.0089 22.5252 11.0957 22.3805C11.1824 22.2357 11.2276 22.0742 11.2275 21.9102C11.2267 21.8041 11.2078 21.6987 11.1715 21.5977C10.9198 20.7567 10.8473 19.8813 10.9578 19.0166C12.0223 20.8013 13.7311 22.216 15.8094 23.0332C16.0631 23.1341 16.3498 23.1477 16.6141 23.0713C18.2561 22.6002 19.7354 21.7637 20.9112 20.6414C22.0871 19.519 22.9206 18.148 23.3325 16.6586C23.7444 15.1692 23.721 13.611 23.2646 12.1319C22.8081 10.6529 21.9338 9.30212 20.7247 8.20801ZM16.3318 21.0391C15.3511 20.5973 14.4861 19.977 13.7928 19.2185C13.0996 18.4601 12.5937 17.5804 12.308 16.6367C12.2208 16.319 12.1533 15.9972 12.1059 15.6729C12.0737 15.4663 11.9698 15.2739 11.8086 15.1224C11.6473 14.9709 11.4369 14.8681 11.2066 14.8281C11.1357 14.8157 11.0636 14.8095 10.9913 14.8096C10.7936 14.8095 10.5993 14.8558 10.4281 14.9438C10.2569 15.0317 10.1149 15.1582 10.0162 15.3106C9.0828 16.7417 8.61337 18.3746 8.65998 20.0284C7.839 19.461 7.15287 18.7544 6.64137 17.9495C6.12986 17.1447 5.80315 16.2576 5.68016 15.3397C5.55717 14.4219 5.64036 13.4914 5.92491 12.6023C6.20945 11.7132 6.68968 10.8831 7.33778 10.1602C7.82987 9.59203 8.42351 9.09949 9.09503 8.70219C9.12411 8.68551 9.15199 8.66725 9.17853 8.6475C9.17853 8.6475 9.5123 8.40202 9.52371 8.3964C11.1265 7.19137 12.2665 5.57192 12.7848 3.76371C14.0106 4.77095 14.8279 6.10974 15.1099 7.57222C15.3919 9.0347 15.1228 10.539 14.3443 11.8516C14.2415 12.0268 14.1993 12.2251 14.2231 12.4215C14.2468 12.6179 14.3355 12.8037 14.478 12.9554C14.6204 13.1071 14.8102 13.2179 15.0234 13.2738C15.2365 13.3297 15.4636 13.3282 15.6758 13.2696C17.3991 12.7894 18.9155 11.8515 20.0209 10.5821C20.6853 11.4544 21.1197 12.4487 21.2916 13.491C21.4636 14.5332 21.3687 15.5965 21.0141 16.6017C20.6595 17.6068 20.0543 18.5278 19.2436 19.2961C18.4328 20.0645 17.4375 20.6602 16.3317 21.0391L16.3318 21.0391Z" fill="black"/>
</svg>
